<?xml version="1.0" encoding="utf-8"?>
<!-- Generator: Adobe Illustrator 22.0.1, SVG Export Plug-In . SVG Version: 6.00 Build 0)  -->
<svg version="1.1" xmlns="http://www.w3.org/2000/svg" xmlns:xlink="http://www.w3.org/1999/xlink" x="0px" y="0px"
	 viewBox="0 0 147.4 47.8" style="enable-background:new 0 0 147.4 47.8;" xml:space="preserve">
<g id="Layer_1">
</g>
<g id="GUIDES">
	<path d="M147,0l-30.7,47.5L58.6,36.1L0,45.4L15.8,21c0.5,0.3,1.1,0.5,1.8,0.6L3.9,42.9l54.8-8.7l56.7,11.2L127.3,27
		c0,0,0.1,0,0.1,0c1,0,1.8-0.4,2.2-0.7l-0.4-0.8l-0.7-0.5l14.4-22.3l-72.2,14c0.5-0.9,1-1.7,1.3-2.2L147,0z M100,18.5
		c0.9,0,1.6-0.9,1.6-1.8c0-0.8-0.5-1.1-1.1-1.1c-1,0-1.7,1-1.7,1.8C98.8,18,99.2,18.5,100,18.5z M21,12.2c0.1,0,0.3,0,0.4,0
		c0,0,0.1,0,0.1,0l7.6-11.6l38.6,14.8c0.1-0.1,0.1-0.2,0.2-0.3c0.5-0.9,0.9-1.5,0.9-1.5l2.9-0.2c-2.1,3.5-6.1,10-6.4,10.5
		c-1.7,2.9-2.5,4.3-2.5,5.1c0,0.3,0.1,0.5,0.4,0.5c0.9,0,2.8-1.4,6.6-6.2c0.3-0.4,1.2-1.7,1.6-2.2l2.7-0.1c-1.5,2.3-3.6,5.4-4.5,7
		C69.2,28.6,69,29,69,29.2c0,0.3,0.2,0.4,0.4,0.4c1,0,3-1.6,5.8-5.6c0.7-1,1.2-1.8,1.9-2.8l2.7-0.1c-0.8,1.2-2.3,3.7-2.5,4
		c-1.3,2.1-2,3.4-2,4c0,0.3,0.1,0.5,0.5,0.5c2,0,4.7-3.6,5.4-5.5c0-1.3,0.2-2.4,0.7-3c0.2-0.3,0.5-0.6,1.1-0.6
		c0.4,0,0.7,0.2,0.7,0.5c0,0.5-0.6,1.9-1.6,3.6c0.3,0.7,0.9,1.1,1.6,1.3c1.1-2,3.6-5.3,6.9-5.3c1.2,0,1.7,0.4,1.7,1.3
		c0,1.7-2.6,4.1-6.2,4.6c-0.3,0.6-0.6,1.3-0.6,2c0,0.6,0.3,1.1,1.2,1.1c2.9,0,6.4-4.4,8.3-6.9c0.1-0.2,0.9-1.2,1.1-1.5l2.7-0.2
		c-2.3,3.6-3,4.8-3,4.8c-0.7,1.2-1.6,2.7-1.6,3.2c0,0.3,0.2,0.5,0.5,0.5c1.1,0,3.1-1.8,5.9-4.7c1.2-1.2,2.5-2.6,3.4-3.6
		c0.3-1.1,0.9-1.6,1.6-1.6c0.6,0,0.8,0.3,0.8,0.8c0,0.6-0.5,1-1,1.1c0,0.1,0,0.3,0,0.5c0,1.1,0.1,1.9,0.1,3.1c0,1.1-0.2,2.1-0.8,3.1
		c1.4-1.1,4.2-3.8,5.9-5.3c1.7-1.6,3.4-2.2,4.7-2.2c1.1,0,1.7,0.4,1.7,1.3c0,2.2-3.7,4.3-6.2,4.6c-0.3,0.5-0.6,1.4-0.6,2.1
		c0,0.6,0.4,1,1,1c2,0,4-2.1,5.6-4c2.5-3.1,3.6-4.8,5.5-4.8c1,0,1.5,0.5,1.5,1.2c0,0.9-0.4,1.7-1.3,3.3c2.9-3.7,4.3-4.5,5.3-4.5
		c0.7,0,1.2,0.4,1.2,0.9c-1,0.3-2,1.7-2,2.7c0,0.3,0.1,0.5,0.2,0.7c0.1,0.1,0.3,0.2,0.6,0.2c0.3,0,0.6-0.1,1-0.3l0.2,0.5
		c-0.5,0.3-1,0.4-1.7,0.4c-1.3,0-2-0.6-2-1.6c0-0.6,0.3-1.3,0.7-1.9c-1.7,1.5-5.2,6-6.4,8l-2.7,0.1c0.4-0.6,2.7-4,4.3-6.8
		c0.5-0.9,0.8-1.3,0.8-1.7c0-0.2-0.1-0.3-0.3-0.3c-0.9,0-2.3,1.8-4.2,4.2c-1.4,1.8-3.9,4.8-7.2,4.8c-1.7,0-2.5-0.9-2.5-2.1
		c0-1.1,0.4-2.1,1-3c-0.8,0.7-1.6,1.4-2.4,2.1c-1.5,1.4-3.5,3-6.2,3c-1.4,0-2.2-0.6-2.2-1.3c0-0.4,0.3-0.7,0.6-0.7
		c0.9,0,0.6,1.3,1.8,1.3c1.4,0,2.5-1.3,3.2-5.3c0.1-0.5,0.3-1.6,0.5-2.3c-2.1,2.2-3.6,3.7-4.2,4.4c-1.8,1.8-3.9,3.8-5.9,3.8
		c-1.1,0-1.8-0.6-1.8-1.5c0-0.6,0.3-1.4,1-2.8c-1.6,1.7-4.1,4.3-7.2,4.3c-1.8,0-2.6-0.9-2.6-2.2c0-0.6,0.2-1.3,0.5-2
		c-0.7-0.2-1.3-0.6-1.7-1.2c-0.8,1.3-1.8,2.6-3.2,3.8c-1.4,1.3-2.7,1.7-3.8,1.7c-1.1,0-1.8-0.5-1.8-1.5c0-0.7,0.4-1.5,0.7-2.2
		c-1.5,1.8-3.4,3.7-5.5,3.7c-0.9,0-1.7-0.4-1.7-1.5c0-0.7,0.4-1.4,1-2.5c-1.3,1.4-3.4,4-5.8,4c-1.1,0-1.7-0.6-1.7-1.5
		c0-0.8,0.4-1.6,0.7-2.2c-0.3,0.4-0.6,0.7-0.8,1c-1.7,1.9-3.1,2.7-4.6,2.7c-1.1,0-1.8-0.6-1.8-1.7c0-0.5,0.2-1.2,0.4-1.7
		c-1.6,1.7-3.4,3.4-5.4,3.4c-1.1,0-1.6-0.6-1.6-1.4c0-0.5,0.2-1.1,0.6-1.9l-0.6,0.6c-1.4,1.4-3.1,2.6-4.7,2.6c-1,0-1.7-0.5-1.7-1.5
		c0-0.7,0.5-1.9,1.8-3.7l-0.8,0.8c-4,3.8-8,6.1-12.3,6.1c-3.2,0-4.2-1.4-4.2-3.1c0-0.4,0.1-0.8,0.1-0.8l-0.6,0.7
		c-1.6,2-2.8,3.1-4.4,3.1c-1.3,0-2.4-0.6-2.4-1.8c0-0.7,0.4-1.4,0.9-2.3c1.1-1.8,4.1-6.2,6.3-9.4c-1.4,0.9-3.4,1.6-6,1.6
		c-3.7,0-5.5-1.5-5.5-3.7C13.7,14.2,16.4,12.3,21,12.2z M111,25.9c2.1-0.3,4.7-2.5,4.7-4.1c0-0.3-0.1-0.5-0.4-0.5
		C114.1,21.4,112.6,23,111,25.9z M86.5,25.9c2.1-0.3,4.7-2.4,4.7-4.1c0-0.3-0.2-0.5-0.5-0.5C89.4,21.4,87.8,23.6,86.5,25.9z
		 M27.4,24c2-2.9,4-6,5.3-7.9c-0.6-0.3-1.2-0.6-1.7-0.9c-0.7,0.9-9,13.2-9.6,14.2c-0.5,0.8-0.6,1.2-0.6,1.4c0,0.2,0.1,0.4,0.4,0.4
		c0.3,0,0.7-0.2,1.2-0.6C23.6,29.6,25.2,27.3,27.4,24z M31.4,21.3l0.6-1c1.9,0,3.4,0,4.4-0.5c2.4-1.1,3.6-3.8,3.6-5.1
		c0-0.9-0.4-1.7-1.6-1.7c-1.8,0-3.5,1.8-4.5,3.1c0.9,0.5,1.6,1,2,1.4L35.6,18c-0.6-0.5-1.3-0.9-2-1.4c-1.2,1.5-3.8,5.6-5.6,8.2
		c1.2-0.8,2.7-1,3.7-1v0.7c-3.5,0.1-5.6,2.4-5.6,4.8c0,1.3,0.7,2.2,2.6,2.2c4.4,0,7.3-4.7,7.3-7.7c0-1.4-0.5-2.6-2.7-2.6h-1
		C31.9,21.2,31.6,21.3,31.4,21.3z M63.2,22.4c0-0.5-0.4-0.9-1-0.9c-1.1,0-2.1,0.7-3.6,2.5c-1.2,1.6-2.5,3.9-2.5,4.9
		c0,0.3,0.1,0.6,0.6,0.6c0.5,0,1.4-0.4,2.7-1.8c1.2-1.3,2.6-3.1,3.6-4.9C63.2,22.7,63.2,22.5,63.2,22.4z M23.7,12.4
		c0.4,0,0.9,0.1,1.3,0.2c1.6,0.3,2.9,0.7,4.1,1.1c0.2-0.3,0.4-0.6,0.6-0.9l3.2-0.1c-0.3,0.4-0.8,1.2-1.5,2c0.6,0.3,1.2,0.6,1.8,0.9
		c2-2.5,3.9-3.7,6.3-3.7c2.6,0,3.6,1.5,3.6,3c0,1.4-0.8,3-1.8,3.9c-1.3,1.3-3.1,1.9-4.5,2.2c0.8,0.4,2.2,1.1,2.2,3.4
		c0,1.9-1.1,3.7-2.3,5.1c2.4-1.4,5.8-4.6,7.3-6.5c0.3-0.4,1-1.3,1.3-1.8l2.8-0.2c0,0-3.6,5.4-4.4,6.8c-0.4,0.8-0.6,1.1-0.6,1.3
		c0,0.2,0.1,0.4,0.4,0.4c1.1,0,3.2-1.8,4.6-3.8c0.7-0.9,3.1-4.5,3.1-4.5l2.9-0.2c-2.3,3.6-3.1,4.8-3.1,4.8c-0.8,1.2-1.4,2.3-1.5,2.9
		c-0.1,0.2-0.1,0.3-0.1,0.4c0,0.3,0.1,0.4,0.4,0.4c1.7,0,4.7-3.9,5.6-5.1c1.7-2.2,3.9-3.7,6.2-3.7c1,0,1.7,0.4,2,1.1
		c0.6-1,1.7-2.7,2.6-4.3c0.1-0.2,0.2-0.3,0.3-0.4L29.8,2.9L23.7,12.4z M14.9,17c0,0.7,0.2,1.3,0.7,1.8c0.3,0.3,0.7,0.6,1.2,0.7
		l3.6-5.5c0.4,0,0.9-0.1,1.4-0.1c0.3,0,0.6,0,0.9,0l-3.8,5.9c0.2,0,0.4,0,0.6,0c0.3,0,0.6,0,0.9,0c3.6-0.3,5.8-2.2,6.6-3.2
		c0,0,1.7-2.4,1.8-2.5c-1.7-0.6-4.1-1.3-7-1.3C17.4,13,14.9,14.7,14.9,17z M121.6,46.5c0,0.3-0.1,0.6-0.3,0.8
		c-0.2,0.2-0.5,0.3-0.8,0.3c-0.3,0-0.6-0.1-0.8-0.3c-0.2-0.2-0.3-0.5-0.3-0.8c0-0.3,0.1-0.6,0.3-0.8c0.2-0.2,0.5-0.3,0.8-0.3
		c0.3,0,0.6,0.1,0.8,0.3C121.5,45.9,121.6,46.1,121.6,46.5z M121.4,46.5c0-0.3-0.1-0.5-0.3-0.7c-0.2-0.2-0.4-0.3-0.7-0.3
		c-0.3,0-0.5,0.1-0.7,0.3c-0.2,0.2-0.3,0.4-0.3,0.7c0,0.3,0.1,0.5,0.3,0.7c0.2,0.2,0.4,0.3,0.7,0.3c0.3,0,0.5-0.1,0.7-0.3
		C121.3,47,121.4,46.7,121.4,46.5z M121,47.1h-0.3l-0.2-0.5h-0.3v0.5h-0.3v-1.4h0.6c0.2,0,0.3,0,0.4,0.1c0.1,0.1,0.1,0.2,0.1,0.3
		c0,0.2-0.1,0.3-0.3,0.4L121,47.1z M120.2,46.4h0.3c0.2,0,0.3-0.1,0.3-0.2c0-0.1-0.1-0.2-0.2-0.2h-0.3V46.4z" fill="#FFF"/>
</g>
</svg>
